<?xml version="1.0" encoding="utf-8"?>
<!-- Generator: Adobe Illustrator 19.1.0, SVG Export Plug-In . SVG Version: 6.00 Build 0)  -->
<svg version="1.1" id="Ebene_1" xmlns="http://www.w3.org/2000/svg" xmlns:xlink="http://www.w3.org/1999/xlink" x="0px" y="0px"
	 viewBox="0 0 312.3 105.7" style="enable-background:new 0 0 312.3 105.7;" xml:space="preserve">
<style type="text/css">
	.st0{fill:#1D1D1B;}
</style>
<g>
	<g>
		<path class="st0" d="M88.1,88.3c0-1.9,0.2-3.6,0.7-5.2c0.5-1.6,1.2-2.9,2-4.1c0.9-1.1,1.9-2,3-2.6c1.1-0.6,2.4-0.9,3.7-0.9
			c1,0,1.9,0.2,2.6,0.5s1.3,0.8,1.7,1.3c0.4,0.6,0.8,1.2,1,2c0.2,0.7,0.3,1.5,0.3,2.3c0,1.8-0.2,3.5-0.7,5.1c-0.5,1.6-1.1,2.9-2,4.1
			c-0.8,1.2-1.8,2.1-2.9,2.7c-1.1,0.7-2.3,1-3.6,1c-1.1,0-2-0.2-2.7-0.5c-0.7-0.3-1.3-0.8-1.8-1.4c-0.5-0.6-0.8-1.2-1-2
			C88.2,89.8,88.1,89,88.1,88.3z M91,87.6c0,1.4,0.3,2.5,0.8,3.3c0.5,0.8,1.4,1.1,2.5,1.1c0.8,0,1.5-0.3,2.3-0.9
			c0.7-0.6,1.3-1.3,1.9-2.3c0.5-1,1-2.1,1.3-3.3c0.3-1.2,0.5-2.5,0.5-3.9c0-1.2-0.2-2.2-0.7-2.9c-0.4-0.7-1.3-1.1-2.6-1.1
			c-0.8,0-1.6,0.3-2.3,0.8c-0.7,0.5-1.4,1.3-1.9,2.2c-0.6,0.9-1,2-1.3,3.2C91.2,85.1,91,86.3,91,87.6z"/>
		<path class="st0" d="M108.8,75.8h1.9l-0.2,3.1h0.1c0.3-0.4,0.7-0.9,1.1-1.3c0.4-0.4,0.9-0.8,1.4-1.1c0.5-0.3,1.1-0.6,1.7-0.8
			c0.6-0.2,1.3-0.3,2-0.3c0.6,0,1.1,0.1,1.6,0.3c0.5,0.2,1,0.5,1.3,0.9c0.4,0.4,0.7,1,0.9,1.7c0.2,0.7,0.3,1.6,0.3,2.6
			c0,2.1-0.3,4-0.9,5.7c-0.6,1.7-1.3,3.1-2.3,4.2c-0.9,1.2-2,2-3.2,2.7c-1.2,0.6-2.3,0.9-3.5,0.9c-0.8,0-1.6-0.1-2.2-0.2
			c-0.6-0.2-1.1-0.3-1.3-0.5l-1.6,7.5h-2.7L108.8,75.8z M115.8,77.7c-0.7,0-1.3,0.2-1.9,0.5c-0.6,0.3-1.1,0.8-1.6,1.2
			c-0.5,0.5-0.9,1-1.3,1.6c-0.4,0.6-0.7,1.1-0.9,1.6l-1.8,8.6c0.4,0.3,0.8,0.5,1.3,0.7c0.4,0.1,0.9,0.2,1.4,0.2
			c0.9,0,1.8-0.3,2.7-0.8c0.9-0.5,1.6-1.3,2.3-2.2c0.7-1,1.2-2.1,1.6-3.5c0.4-1.3,0.6-2.9,0.6-4.5c0-1-0.2-1.8-0.6-2.4
			C117.1,78,116.6,77.7,115.8,77.7z"/>
		<path class="st0" d="M136,92.1c-0.8,0.7-1.8,1.3-3,1.6c-1.1,0.4-2.3,0.6-3.5,0.6c-1.9,0-3.4-0.6-4.4-1.7c-1-1.1-1.5-2.7-1.5-4.6
			c0-2,0.3-3.7,0.8-5.3c0.6-1.6,1.3-2.9,2.2-4c0.9-1.1,1.9-1.9,3.1-2.5c1.1-0.6,2.3-0.9,3.5-0.9c0.9,0,1.6,0.1,2.3,0.4
			c0.6,0.2,1.2,0.6,1.6,1c0.4,0.4,0.7,0.9,0.9,1.4c0.2,0.5,0.3,1.1,0.3,1.6c0,1.7-0.8,3.1-2.5,4c-1.7,1-4.1,1.5-7.3,1.5
			c-0.3,0-0.6,0-0.9,0c-0.3,0-0.6,0-1-0.1c-0.1,0.5-0.2,0.9-0.2,1.3c0,0.4-0.1,0.8-0.1,1.1c0,1.3,0.3,2.4,0.9,3.2
			c0.6,0.8,1.5,1.2,2.8,1.2c1.1,0,2-0.2,2.9-0.5c0.9-0.3,1.6-0.7,2-1.1L136,92.1z M133,77.7c-1.3,0-2.5,0.5-3.5,1.4
			c-1,0.9-1.7,2.3-2.2,4.1c0.9,0,1.9,0,2.9-0.1c1,0,1.9-0.2,2.7-0.4c0.8-0.2,1.5-0.5,2-1c0.5-0.4,0.8-1.1,0.8-1.9
			c0-0.2,0-0.5-0.1-0.7c-0.1-0.3-0.2-0.5-0.4-0.7s-0.5-0.4-0.8-0.5S133.5,77.7,133,77.7z"/>
		<path class="st0" d="M150.7,93.9l2.4-11.4c0.1-0.4,0.2-0.9,0.3-1.3c0.1-0.4,0.1-0.8,0.1-1.1c0-0.7-0.2-1.3-0.5-1.7
			c-0.3-0.4-0.9-0.7-1.8-0.7c-0.6,0-1.2,0.1-1.8,0.4c-0.6,0.3-1.2,0.7-1.7,1.1c-0.5,0.4-1,0.9-1.4,1.5c-0.4,0.5-0.8,1.1-1.1,1.6
			l-2.4,11.6H140l3.8-18.1h1.9l-0.1,3.1h0.1c0.3-0.4,0.7-0.8,1.1-1.2c0.4-0.4,0.9-0.8,1.5-1.1c0.5-0.3,1.2-0.6,1.8-0.9
			c0.7-0.2,1.4-0.3,2.2-0.3c1.2,0,2.2,0.3,2.9,0.9s1,1.6,1,3c0,0.7-0.1,1.6-0.3,2.6l-2.6,12H150.7z"/>
		<path class="st0" d="M163.4,75.8h2.7l-3.8,18.1h-2.7L163.4,75.8z M164,70.3c0-0.6,0.2-1,0.6-1.4c0.4-0.4,0.8-0.6,1.4-0.6
			c0.6,0,1,0.2,1.4,0.6c0.4,0.4,0.6,0.9,0.6,1.4c0,0.6-0.2,1-0.6,1.4c-0.4,0.4-0.9,0.6-1.4,0.6c-0.6,0-1-0.2-1.4-0.6
			C164.2,71.3,164,70.8,164,70.3z"/>
		<path class="st0" d="M178.9,93.9l2.4-11.4c0.1-0.4,0.2-0.9,0.3-1.3c0.1-0.4,0.1-0.8,0.1-1.1c0-0.7-0.2-1.3-0.5-1.7
			c-0.3-0.4-0.9-0.7-1.8-0.7c-0.6,0-1.2,0.1-1.8,0.4c-0.6,0.3-1.2,0.7-1.7,1.1c-0.5,0.4-1,0.9-1.4,1.5c-0.4,0.5-0.8,1.1-1.1,1.6
			L171,93.9h-2.7l3.8-18.1h1.9l-0.1,3.1h0.1c0.3-0.4,0.7-0.8,1.1-1.2c0.4-0.4,0.9-0.8,1.5-1.1c0.5-0.3,1.2-0.6,1.8-0.9
			c0.7-0.2,1.4-0.3,2.2-0.3c1.2,0,2.2,0.3,2.9,0.9s1,1.6,1,3c0,0.7-0.1,1.6-0.3,2.6l-2.6,12H178.9z"/>
		<path class="st0" d="M199.7,94.7c-0.5,2.4-1.4,4.1-2.6,5.2c-1.2,1.1-2.9,1.6-4.9,1.6c-1.6,0-2.9-0.2-3.9-0.6c-1-0.4-1.8-0.7-2.3-1
			l1.2-2c0.2,0.1,0.4,0.2,0.7,0.4c0.3,0.2,0.6,0.3,1,0.5c0.4,0.1,0.9,0.3,1.4,0.4c0.6,0.1,1.2,0.1,2,0.1c1.2,0,2.2-0.4,3-1.3
			c0.8-0.9,1.4-2.2,1.8-4.1l0.6-3h-0.1c-0.3,0.5-0.7,0.9-1.1,1.3c-0.4,0.4-0.8,0.8-1.3,1.1c-0.5,0.3-1,0.6-1.6,0.8
			c-0.6,0.2-1.2,0.3-1.9,0.3c-1.3,0-2.4-0.5-3.1-1.4c-0.8-0.9-1.2-2.3-1.2-4c0-1.6,0.2-3.2,0.7-4.8c0.4-1.6,1.1-3,2-4.3
			c0.9-1.3,2-2.3,3.2-3.1c1.3-0.8,2.8-1.2,4.5-1.2c1.3,0,2.4,0.1,3.3,0.3c0.9,0.2,1.7,0.5,2.3,0.8L199.7,94.7z M192.9,92
			c0.6,0,1.2-0.2,1.8-0.5c0.6-0.3,1.1-0.7,1.6-1.2c0.5-0.5,0.9-1,1.3-1.6c0.4-0.6,0.7-1.1,1-1.6l1.8-8.7c-0.4-0.2-0.9-0.4-1.4-0.4
			c-0.6-0.1-1.1-0.1-1.7-0.1c-1,0-1.9,0.3-2.7,0.9c-0.8,0.6-1.6,1.4-2.2,2.3c-0.6,1-1.1,2.1-1.5,3.4c-0.4,1.3-0.5,2.6-0.5,4
			c0,1.1,0.2,2,0.7,2.6C191.6,91.7,192.2,92,192.9,92z"/>
		<path class="st0" d="M224.8,93.9l2.2-10.2c0.2-0.8,0.3-1.6,0.4-2.2c0.1-0.7,0.1-1.2,0.1-1.7c0-0.7-0.1-1.2-0.4-1.5
			c-0.2-0.3-0.7-0.5-1.2-0.5c-0.6,0-1.2,0.2-1.8,0.5c-0.6,0.3-1.1,0.7-1.6,1.2c-0.5,0.5-1,1-1.4,1.5c-0.4,0.5-0.8,1-1,1.4l-2.4,11.6
			h-2.7l3.8-18.1h1.9l-0.2,3.1h0.1c0.4-0.4,0.8-0.8,1.2-1.2c0.4-0.4,0.9-0.8,1.5-1.1c0.5-0.3,1.1-0.6,1.8-0.9
			c0.6-0.2,1.3-0.3,2.1-0.3c1.1,0,1.8,0.3,2.2,1c0.4,0.7,0.6,1.6,0.6,2.8c0.4-0.5,0.8-0.9,1.3-1.4c0.5-0.5,1-0.9,1.6-1.2
			c0.6-0.4,1.2-0.7,1.8-0.9c0.6-0.2,1.3-0.3,1.9-0.3c1.1,0,2,0.3,2.6,0.8c0.6,0.5,0.9,1.5,0.9,2.9c0,1-0.2,2.4-0.5,4l-2.3,10.9h-2.7
			l2.3-10.9c0.1-0.7,0.3-1.3,0.3-1.9s0.1-1,0.1-1.4c0-0.7-0.1-1.1-0.4-1.5c-0.3-0.3-0.7-0.5-1.3-0.5c-0.5,0-1,0.2-1.6,0.5
			c-0.6,0.3-1.1,0.7-1.6,1.2c-0.5,0.5-1,1-1.4,1.6c-0.4,0.6-0.8,1.1-1,1.6l-2.4,11.4H224.8z"/>
		<path class="st0" d="M247.2,75.8h2.7L246,93.9h-2.7L247.2,75.8z M247.7,70.3c0-0.6,0.2-1,0.6-1.4c0.4-0.4,0.8-0.6,1.4-0.6
			c0.6,0,1,0.2,1.4,0.6c0.4,0.4,0.6,0.9,0.6,1.4c0,0.6-0.2,1-0.6,1.4c-0.4,0.4-0.9,0.6-1.4,0.6c-0.6,0-1-0.2-1.4-0.6
			C247.9,71.3,247.7,70.8,247.7,70.3z"/>
		<path class="st0" d="M262.7,93.9l2.4-11.4c0.1-0.4,0.2-0.9,0.3-1.3c0.1-0.4,0.1-0.8,0.1-1.1c0-0.7-0.2-1.3-0.5-1.7
			c-0.3-0.4-0.9-0.7-1.8-0.7c-0.6,0-1.2,0.1-1.8,0.4c-0.6,0.3-1.2,0.7-1.7,1.1c-0.5,0.4-1,0.9-1.4,1.5c-0.4,0.5-0.8,1.1-1.1,1.6
			l-2.4,11.6H252l3.8-18.1h1.9l-0.1,3.1h0.1c0.3-0.4,0.7-0.8,1.1-1.2c0.4-0.4,0.9-0.8,1.5-1.1c0.5-0.3,1.2-0.6,1.8-0.9
			c0.7-0.2,1.4-0.3,2.2-0.3c1.2,0,2.2,0.3,2.9,0.9s1,1.6,1,3c0,0.7-0.1,1.6-0.3,2.6l-2.6,12H262.7z"/>
		<path class="st0" d="M284.8,87.7c-0.2,0.9-0.3,1.8-0.4,2.6c-0.1,0.8-0.1,1.6-0.1,2.3c0,0.3,0,0.5,0,0.7c0,0.2,0,0.4,0.1,0.7h-1.8
			l-0.5-3.1h-0.1c-0.3,0.4-0.7,0.8-1.1,1.2c-0.4,0.4-0.9,0.8-1.4,1.1c-0.5,0.3-1.1,0.6-1.7,0.8c-0.6,0.2-1.2,0.3-1.8,0.3
			c-1.3,0-2.4-0.5-3.2-1.5c-0.8-1-1.2-2.5-1.2-4.6c0-1.4,0.2-2.9,0.6-4.4c0.4-1.5,1-2.9,1.8-4.1c0.8-1.2,1.8-2.2,3-3
			c1.2-0.8,2.6-1.2,4.1-1.2c0.4,0,0.8,0,1.1,0c0.3,0,0.6,0.1,0.9,0.1c0.3,0,0.5,0.1,0.8,0.2c0.2,0.1,0.5,0.2,0.8,0.3l1.6-7.5h2.7
			L284.8,87.7z M276.8,92c0.5,0,1-0.1,1.6-0.4c0.5-0.3,1-0.6,1.5-1c0.5-0.4,0.9-0.9,1.3-1.3c0.4-0.5,0.7-0.9,0.9-1.3l2-9.4
			c-0.4-0.3-0.9-0.5-1.4-0.6c-0.5-0.1-1.2-0.2-2-0.2c-1,0-1.8,0.3-2.6,0.9c-0.8,0.6-1.4,1.4-2,2.4c-0.5,1-1,2.1-1.2,3.4
			c-0.3,1.3-0.4,2.6-0.4,3.9c0,1,0.2,1.8,0.6,2.6C275.3,91.7,275.9,92,276.8,92z"/>
		<path class="st0" d="M297.4,88.8c0-0.6-0.2-1.2-0.5-1.6c-0.3-0.4-0.7-0.8-1.2-1.2c-0.5-0.4-1-0.7-1.6-1c-0.6-0.3-1.1-0.7-1.6-1.1
			c-0.5-0.4-0.9-0.9-1.2-1.5c-0.3-0.6-0.5-1.3-0.5-2.1c0-0.7,0.2-1.3,0.5-1.9c0.3-0.6,0.8-1.1,1.3-1.6c0.6-0.4,1.2-0.8,2-1
			c0.8-0.3,1.6-0.4,2.6-0.4c1.3,0,2.3,0.1,3,0.3c0.7,0.2,1.3,0.4,1.9,0.7l-0.9,2.2c-1-0.6-2.3-0.8-3.9-0.8c-1,0-1.9,0.2-2.5,0.6
			c-0.7,0.4-1,1.1-1,1.9c0,0.5,0.2,0.9,0.5,1.3c0.3,0.4,0.7,0.7,1.2,1.1c0.5,0.3,1,0.7,1.6,1c0.6,0.3,1.1,0.7,1.6,1.2
			c0.5,0.4,0.9,1,1.2,1.6c0.3,0.6,0.5,1.3,0.5,2.1c0,1.9-0.6,3.3-1.9,4.3c-1.3,1-3,1.5-5.1,1.5c-1.1,0-2.1-0.1-3-0.3
			c-0.9-0.2-1.6-0.5-2.2-0.8l1-2.3c0.5,0.3,1.1,0.6,1.9,0.8c0.8,0.2,1.6,0.3,2.4,0.3c1.2,0,2.1-0.3,2.8-0.8
			C297,90.7,297.4,89.9,297.4,88.8z"/>
	</g>
	<g>
		<path class="st0" d="M4.7,5.2h9.4v17.4h0.3c1-1.2,2.3-2.1,3.9-2.7c1.6-0.7,3.4-1,5.3-1c4.3,0,7.7,1.5,9.9,4.4
			c2.3,3,3.4,7.5,3.4,13.6c0,6.5-1.6,11.5-4.8,14.8c-3.2,3.4-7.6,5.1-13.2,5.1c-3.1,0-5.9-0.3-8.5-0.8c-2.6-0.5-4.5-1.1-5.8-1.7V5.2
			z M20.8,26.7c-1.7,0-3.1,0.4-4.2,1.3c-1.1,0.9-1.9,2.2-2.5,3.9v15.8c0.8,0.4,1.6,0.7,2.5,0.8c0.9,0.1,1.8,0.2,2.9,0.2
			c2.6,0,4.5-0.9,5.8-2.8c1.3-1.9,2-4.8,2-8.9C27.2,30.2,25.1,26.7,20.8,26.7z"/>
		<path class="st0" d="M64.8,28.1c-1.5-0.5-4.3-1.3-5.5-1.3c-1.7,0-2.9,0.7-4,1.6c-1.1,0.9-2.1,2.7-2.5,4.1v23.4h-9.4V19.6h7.3
			l1.1,4.1h0.3c0.8-1.8,1.8-2.9,3.2-3.9c1.4-1,3.1-1,5-1c1.3,0,3.9,0.9,5.5,1.5L64.8,28.1z"/>
		<path class="st0" d="M70.1,20.6c2.7-0.5,10.1-1.7,13-1.7c2.5,0,4.6,0.3,6.3,0.9c1.7,0.6,3,1.5,4,2.6c1,1.1,1.7,2.4,2.1,4
			c0.4,1.5,0.6,3.3,0.6,5.2c0,2.1-0.1,4.3-0.2,6.4c-0.1,2.1-0.2,4.3-0.3,6.3c0,2.1,0,4.1,0.2,6c0.1,2,0.5,3.8,1.1,5.5h-7.7l-1.5-5
			h-0.4c-1,1.5-2.3,2.8-4,3.9c-1.7,1.1-3.9,1.6-6.6,1.6c-1.7,0-3.2-0.3-4.6-0.8c-1.4-0.5-2.5-1.2-3.5-2.2c-1-0.9-1.7-2-2.2-3.3
			c-0.5-1.3-0.8-2.7-0.8-4.3c0-2.2,0.5-4.1,1.5-5.6c1-1.5,2.4-2.7,4.3-3.7c1.9-0.9,4.1-1.6,6.7-2c2.6-0.4,5.5-0.5,8.6-0.3
			c0.3-2.7,0.1-4.6-0.6-5.8c-0.7-1.2-2.3-1.8-4.8-1.8c-1.9,0-8.6,1.1-10.7,1.5L70.1,20.6z M79.9,48.6c1.9,0,3.4-0.4,4.5-1.3
			c1.1-0.8,1.9-1.7,2.5-2.7V40c-1.5-0.1-2.9-0.2-4.3-0.1c-1.4,0.1-2.6,0.3-3.7,0.7c-1.1,0.3-1.9,0.8-2.5,1.4
			c-0.6,0.6-0.9,1.4-0.9,2.4c0,1.4,0.4,2.4,1.2,3.1C77.4,48.3,78.5,48.6,79.9,48.6z"/>
		<path class="st0" d="M103.5,9.4c0-1.4,0.5-2.6,1.6-3.6c1-1,2.5-1.5,4.3-1.5c1.8,0,3.3,0.5,4.4,1.5c1.1,1,1.7,2.2,1.7,3.6
			c0,1.4-0.6,2.6-1.7,3.5c-1.1,0.9-2.6,1.4-4.4,1.4c-2.3,0-4-0.7-5-2.2C103.8,11.3,103.5,10.4,103.5,9.4z M104.9,19.6h9.4v36.2h-9.4
			V19.6z"/>
		<path class="st0" d="M145.6,55.8V35.2c0-2.9-0.4-5.1-1.3-6.4c-0.8-1.3-2.3-2-4.3-2c-1.8,0-3.3,0.5-4.5,1.6c-1.2,1-2.1,2.3-2.6,3.9
			v23.4h-9.4V19.6h7.5l1.1,4.8h0.3c1.1-1.5,2.6-2.9,4.4-4.1c1.8-1.2,4.2-1.7,7.1-1.7c1.8,0,3.4,0.2,4.8,0.7c1.4,0.5,2.6,1.3,3.5,2.4
			c1,1.1,1.7,2.6,2.2,4.5c0.5,1.9,0.7,4.3,0.7,7.1v22.5H145.6z"/>
		<path class="st0" d="M165.3,5.2h5.8v18h0.3c1.1-1.4,2.5-2.5,4.2-3.3c1.7-0.8,3.6-1.2,5.6-1.2c4.7,0,8.2,1.5,10.5,4.5
			c2.3,3,3.5,7.6,3.5,13.9c0,6.3-1.5,11.1-4.6,14.4c-3.1,3.3-7.4,4.9-13,4.9c-2.7,0-5.1-0.3-7.3-0.9c-2.2-0.6-3.8-1.2-5-1.9V5.2z
			 M180.2,23.8c-2.4,0-4.4,0.7-5.9,2c-1.5,1.4-2.6,3.3-3.3,5.7v18.2c0.9,0.5,2,0.9,3.3,1.2c1.3,0.3,2.7,0.4,4.1,0.4
			c3.3,0,5.9-1.2,7.8-3.5c2-2.3,2.9-5.9,2.9-10.9c0-1.9-0.2-3.6-0.5-5.3c-0.3-1.6-0.9-3-1.6-4.2c-0.7-1.2-1.7-2.1-2.8-2.7
			C183.3,24.2,181.9,23.8,180.2,23.8z"/>
		<path class="st0" d="M201.5,8.6c0-1.1,0.4-2.1,1.1-2.9c0.7-0.8,1.7-1.2,2.9-1.2s2.1,0.4,3,1.2c0.8,0.8,1.2,1.7,1.2,2.9
			c0,1.1-0.4,2-1.2,2.7c-0.8,0.7-1.8,1.1-3,1.1s-2.1-0.4-2.9-1.1S201.5,9.7,201.5,8.6z M202.7,19.6h5.8v36.2h-5.8V19.6z"/>
		<path class="st0" d="M236.5,25.2c-1.4-0.5-2.8-0.7-4.1-0.7c-2.1,0-3.7,0.6-4.9,1.7c-1.2,1.1-2,2.6-2.2,4.3v25.3h-5.8V19.6h4.1
			l1.1,4.4h0.3c0.9-1.6,2-2.9,3.3-3.8c1.3-0.9,2.9-1.3,4.9-1.3c1.4,0,3,0.2,4.7,0.7L236.5,25.2z"/>
		<path class="st0" d="M271.8,43.4c0,2.5,0,4.7,0.1,6.7c0,2,0.3,4,0.7,5.9h-3.9l-1.4-5.1h-0.3c-1,1.7-2.4,3.1-4.2,4.2
			c-1.8,1.1-4,1.7-6.4,1.7c-4.8,0-8.4-1.5-10.7-4.6c-2.3-3-3.5-7.8-3.5-14.3c0-6.2,1.5-10.9,4.4-14.1c2.9-3.2,6.9-4.8,12-4.8
			c1.8,0,3.2,0.1,4.2,0.3c1,0.2,2.2,0.5,3.4,0.9v-15h5.8V43.4z M257.2,51.6c2.5,0,4.4-0.6,5.9-1.9c1.4-1.3,2.4-3.2,3-5.8V25.9
			c-0.9-0.7-1.9-1.2-3-1.4c-1.1-0.3-2.6-0.4-4.4-0.4c-3.3,0-5.9,1.1-7.8,3.3C249,29.5,248,33,248,37.9c0,2,0.2,3.8,0.5,5.5
			c0.3,1.7,0.8,3.1,1.6,4.3c0.7,1.2,1.7,2.2,2.9,2.9C254.1,51.3,255.5,51.6,257.2,51.6z"/>
		<path class="st0" d="M298.9,46c0-1.4-0.4-2.6-1.3-3.4c-0.9-0.8-1.9-1.5-3.2-2.1c-1.3-0.6-2.7-1.1-4.2-1.6c-1.5-0.5-2.9-1.2-4.2-2
			c-1.3-0.8-2.4-1.8-3.2-3.1c-0.9-1.3-1.3-2.9-1.3-5.1c0-3.5,1-6,3-7.6c2-1.6,4.7-2.4,8.2-2.4c2.6,0,4.8,0.2,6.5,0.7
			c1.8,0.5,3.3,1,4.6,1.6l-1.4,4.8c-1.1-0.5-2.4-1-4-1.4s-3.2-0.6-5-0.6c-2.1,0-3.7,0.4-4.7,1.1c-1,0.7-1.5,2-1.5,3.8
			c0,1.3,0.4,2.2,1.3,2.9c0.9,0.7,1.9,1.3,3.2,1.9c1.3,0.6,2.7,1.1,4.2,1.6c1.5,0.5,2.9,1.2,4.2,2.1c1.3,0.9,2.4,2,3.2,3.3
			c0.9,1.3,1.3,3.1,1.3,5.2c0,1.5-0.3,3-0.8,4.3c-0.5,1.4-1.3,2.5-2.4,3.5c-1.1,1-2.4,1.7-3.9,2.3c-1.6,0.6-3.4,0.8-5.5,0.8
			c-2.7,0-5.1-0.3-7-0.8c-1.9-0.5-3.5-1.2-4.8-1.9l1.7-4.9c1.1,0.6,2.6,1.2,4.3,1.7c1.8,0.5,3.6,0.8,5.4,0.8c2.1,0,3.8-0.4,5.1-1.2
			C298.2,49.5,298.9,48.1,298.9,46z"/>
	</g>
</g>
</svg>
