<?xml version="1.0" encoding="utf-8"?>
<!-- Generator: Adobe Illustrator 21.1.0, SVG Export Plug-In . SVG Version: 6.00 Build 0)  -->
<svg version="1.1" id="Ebene_1" xmlns="http://www.w3.org/2000/svg" xmlns:xlink="http://www.w3.org/1999/xlink" x="0px" y="0px"
	 viewBox="0 0 76.4 32.1" style="enable-background:new 0 0 76.4 32.1;" xml:space="preserve">
<style type="text/css">
	.st0{fill:#231F20;}
	.st1{fill:#282828;}
	.st2{fill:#8C8C8C;}
	.st3{fill:#B4B4B4;}
	.st4{fill:#FFFFFF;}
</style>
<g>
	<path class="st1" d="M8.6,12.6c0,0.6-0.1,1.2-0.2,1.7c-0.1,0.5-0.4,1-0.6,1.4c-0.3,0.4-0.6,0.7-1,0.9c-0.4,0.2-0.9,0.3-1.4,0.3
		c-0.5,0-1-0.1-1.3-0.3c-0.4-0.2-0.7-0.4-1-0.8l-0.1,0.9H1.2V5.5h1.9v3.6c0.3-0.3,0.6-0.6,0.9-0.7c0.4-0.2,0.8-0.2,1.3-0.2
		c0.5,0,1,0.1,1.4,0.3c0.4,0.2,0.8,0.5,1,0.9c0.3,0.4,0.5,0.8,0.6,1.4s0.2,1.1,0.2,1.7V12.6z M6.7,12.5c0-0.4,0-0.7-0.1-1.1
		c-0.1-0.3-0.2-0.6-0.3-0.9C6.2,10.3,6,10.1,5.8,9.9S5.2,9.7,4.8,9.7C4.4,9.7,4,9.8,3.8,10s-0.5,0.5-0.6,0.8v3.5
		c0.2,0.3,0.4,0.6,0.7,0.8c0.3,0.2,0.6,0.3,1.1,0.3c0.3,0,0.6-0.1,0.9-0.2C6,15,6.2,14.8,6.3,14.6s0.3-0.5,0.3-0.9s0.1-0.7,0.1-1.1
		V12.5z"/>
	<path class="st1" d="M15,10.1c-0.1,0-0.3,0-0.4,0s-0.3,0-0.4,0c-0.5,0-0.8,0.1-1.1,0.3s-0.5,0.4-0.6,0.7v5.8h-1.9V8.3h1.8l0,0.9
		c0.2-0.3,0.5-0.6,0.8-0.8s0.7-0.3,1.1-0.3c0.1,0,0.2,0,0.4,0s0.2,0,0.3,0.1L15,10.1z"/>
	<path class="st1" d="M21.3,16.8c-0.1-0.1-0.1-0.2-0.1-0.4s-0.1-0.3-0.1-0.4c-0.1,0.1-0.3,0.3-0.4,0.4s-0.3,0.2-0.5,0.3
		s-0.4,0.2-0.6,0.2s-0.4,0.1-0.7,0.1c-0.4,0-0.8-0.1-1.2-0.2s-0.7-0.3-0.9-0.5c-0.3-0.2-0.5-0.5-0.6-0.8s-0.2-0.6-0.2-1
		c0-0.5,0.1-0.9,0.3-1.2s0.4-0.6,0.8-0.9s0.7-0.4,1.2-0.5s1-0.2,1.6-0.2h1.2v-0.6c0-0.4-0.1-0.8-0.4-1.1s-0.6-0.4-1.1-0.4
		c-0.2,0-0.4,0-0.6,0.1s-0.3,0.1-0.5,0.2s-0.2,0.2-0.3,0.4s-0.1,0.3-0.1,0.5h-1.9c0-0.3,0.1-0.7,0.2-1s0.4-0.6,0.7-0.8
		s0.7-0.4,1.1-0.6s0.9-0.2,1.4-0.2c0.5,0,0.9,0.1,1.3,0.2s0.7,0.3,1,0.5s0.5,0.5,0.7,0.9s0.2,0.8,0.2,1.3v3.8c0,0.8,0.1,1.4,0.3,1.8
		v0.1H21.3z M19.3,15.4c0.2,0,0.4,0,0.6-0.1s0.4-0.1,0.5-0.2s0.3-0.2,0.4-0.3s0.2-0.2,0.3-0.4v-1.6h-1c-0.7,0-1.2,0.1-1.6,0.4
		s-0.5,0.6-0.5,1c0,0.2,0,0.3,0.1,0.5s0.1,0.3,0.3,0.4s0.3,0.2,0.4,0.2S19,15.4,19.3,15.4z"/>
	<path class="st1" d="M27.5,16.8h-1.9V8.3h1.9V16.8z"/>
	<path class="st1" d="M31.8,8.3l0.1,1c0.3-0.4,0.7-0.6,1.1-0.8c0.4-0.2,0.9-0.3,1.4-0.3c0.4,0,0.8,0.1,1.1,0.2
		c0.3,0.1,0.6,0.3,0.8,0.5s0.4,0.6,0.5,1c0.1,0.4,0.2,0.9,0.2,1.5v5.5h-1.9v-5.5c0-0.3,0-0.5-0.1-0.7c-0.1-0.2-0.2-0.4-0.3-0.5
		s-0.3-0.2-0.5-0.3c-0.2-0.1-0.4-0.1-0.6-0.1c-0.4,0-0.7,0.1-1,0.3s-0.5,0.4-0.7,0.8v6h-1.9V8.3H31.8z"/>
	<path class="st1" d="M46.9,12.6c0,0.6-0.1,1.2-0.2,1.7c-0.1,0.5-0.4,1-0.6,1.4c-0.3,0.4-0.6,0.7-1,0.9c-0.4,0.2-0.9,0.3-1.4,0.3
		c-0.5,0-1-0.1-1.3-0.3c-0.4-0.2-0.7-0.4-1-0.8l-0.1,0.9h-1.7V5.5h1.9v3.6c0.3-0.3,0.6-0.6,0.9-0.7c0.4-0.2,0.8-0.2,1.3-0.2
		c0.5,0,1,0.1,1.4,0.3c0.4,0.2,0.8,0.5,1,0.9c0.3,0.4,0.5,0.8,0.6,1.4s0.2,1.1,0.2,1.7V12.6z M45,12.5c0-0.4,0-0.7-0.1-1.1
		c-0.1-0.3-0.2-0.6-0.3-0.9c-0.1-0.2-0.3-0.4-0.6-0.6s-0.5-0.2-0.9-0.2c-0.4,0-0.8,0.1-1.1,0.3s-0.5,0.5-0.6,0.8v3.5
		c0.2,0.3,0.4,0.6,0.7,0.8c0.3,0.2,0.6,0.3,1.1,0.3c0.3,0,0.6-0.1,0.9-0.2c0.2-0.1,0.4-0.3,0.6-0.6s0.3-0.5,0.3-0.9S45,13,45,12.6
		V12.5z"/>
	<path class="st1" d="M50.8,16.8h-1.9V8.3h1.9V16.8z"/>
	<path class="st1" d="M57.9,10.1c-0.1,0-0.3,0-0.4,0c-0.1,0-0.3,0-0.4,0c-0.5,0-0.8,0.1-1.1,0.3c-0.3,0.2-0.5,0.4-0.6,0.7v5.8h-1.9
		V8.3h1.8l0,0.9c0.2-0.3,0.5-0.6,0.8-0.8c0.3-0.2,0.7-0.3,1.1-0.3c0.1,0,0.2,0,0.4,0c0.1,0,0.2,0,0.3,0.1L57.9,10.1z"/>
	<path class="st1" d="M58.8,12.5c0-0.6,0.1-1.2,0.2-1.8c0.2-0.5,0.4-1,0.7-1.4s0.6-0.7,1.1-0.9c0.4-0.2,0.9-0.3,1.4-0.3
		c0.5,0,0.9,0.1,1.2,0.2c0.4,0.2,0.7,0.4,0.9,0.7V5.5h1.9v11.2h-1.7l-0.1-0.9c-0.3,0.3-0.6,0.6-1,0.8c-0.4,0.2-0.8,0.3-1.3,0.3
		c-0.5,0-1-0.1-1.4-0.3c-0.4-0.2-0.8-0.5-1-0.9c-0.3-0.4-0.5-0.8-0.7-1.4s-0.2-1.1-0.2-1.7V12.5z M60.7,12.6c0,0.4,0,0.7,0.1,1.1
		s0.2,0.6,0.3,0.9c0.2,0.2,0.3,0.4,0.6,0.6c0.2,0.1,0.5,0.2,0.9,0.2c0.4,0,0.8-0.1,1.1-0.3s0.5-0.4,0.7-0.8v-3.6
		c-0.2-0.3-0.4-0.6-0.7-0.7c-0.3-0.2-0.6-0.3-1-0.3c-0.3,0-0.6,0.1-0.9,0.2s-0.4,0.3-0.6,0.6c-0.2,0.2-0.3,0.5-0.3,0.9
		c-0.1,0.3-0.1,0.7-0.1,1.1V12.6z"/>
	<path class="st1" d="M73.2,14.5c0-0.1,0-0.3-0.1-0.4c0-0.1-0.1-0.2-0.3-0.3c-0.1-0.1-0.3-0.2-0.6-0.3c-0.2-0.1-0.5-0.2-0.9-0.2
		c-0.5-0.1-0.9-0.2-1.2-0.4c-0.4-0.1-0.7-0.3-1-0.5s-0.5-0.4-0.6-0.7s-0.2-0.6-0.2-0.9c0-0.3,0.1-0.7,0.2-1c0.2-0.3,0.4-0.6,0.7-0.8
		c0.3-0.2,0.6-0.4,1-0.6c0.4-0.1,0.9-0.2,1.4-0.2c0.5,0,1,0.1,1.4,0.2c0.4,0.1,0.8,0.3,1.1,0.6c0.3,0.2,0.5,0.5,0.7,0.9
		c0.2,0.3,0.2,0.7,0.2,1.1h-1.9c0-0.2,0-0.3-0.1-0.5s-0.2-0.3-0.3-0.4s-0.3-0.2-0.5-0.3c-0.2-0.1-0.4-0.1-0.6-0.1
		c-0.2,0-0.4,0-0.6,0.1c-0.2,0.1-0.3,0.1-0.4,0.2s-0.2,0.2-0.3,0.3c-0.1,0.1-0.1,0.3-0.1,0.4s0,0.3,0.1,0.4c0.1,0.1,0.1,0.2,0.3,0.3
		s0.3,0.2,0.5,0.2c0.2,0.1,0.5,0.1,0.8,0.2c0.5,0.1,0.9,0.2,1.3,0.4c0.4,0.1,0.7,0.3,1,0.5c0.3,0.2,0.5,0.4,0.6,0.7s0.2,0.6,0.2,1
		c0,0.4-0.1,0.7-0.2,1c-0.2,0.3-0.4,0.6-0.7,0.8c-0.3,0.2-0.7,0.4-1.1,0.5s-0.9,0.2-1.4,0.2c-0.6,0-1.1-0.1-1.5-0.2S69.3,16.3,69,16
		c-0.3-0.3-0.5-0.6-0.7-0.9c-0.2-0.3-0.2-0.7-0.2-1h1.8c0,0.3,0.1,0.5,0.2,0.7c0.1,0.2,0.2,0.3,0.4,0.4c0.2,0.1,0.3,0.2,0.5,0.2
		s0.4,0.1,0.6,0.1c0.5,0,0.9-0.1,1.1-0.3C73.1,15,73.2,14.8,73.2,14.5z"/>
</g>
<g>
	<path class="st1" d="M16,27.4c0-0.3,0.1-0.6,0.2-1s0.3-0.7,0.5-0.9c0.2-0.3,0.5-0.5,0.8-0.7c0.3-0.2,0.7-0.3,1.1-0.3
		c0.5,0,0.9,0.1,1.1,0.4c0.2,0.3,0.4,0.7,0.4,1.3c0,0.4-0.1,0.8-0.2,1.1c-0.1,0.4-0.3,0.7-0.5,0.9c-0.2,0.3-0.5,0.5-0.8,0.6
		c-0.3,0.2-0.6,0.2-1,0.2c-0.5,0-0.9-0.1-1.2-0.4S16,28,16,27.4z M18.4,24.9c-0.2,0-0.4,0-0.5,0.1s-0.3,0.2-0.4,0.3
		c-0.1,0.1-0.2,0.3-0.3,0.5c-0.1,0.2-0.1,0.4-0.2,0.6s-0.1,0.4-0.1,0.6c0,0.2,0,0.4,0,0.6c0,0.3,0.1,0.6,0.2,0.8
		c0.2,0.2,0.4,0.3,0.6,0.3c0.2,0,0.4-0.1,0.6-0.2c0.2-0.2,0.3-0.4,0.4-0.6c0.1-0.2,0.2-0.5,0.3-0.8c0.1-0.3,0.1-0.6,0.1-1
		c0-0.4-0.1-0.6-0.2-0.8C18.8,25,18.6,24.9,18.4,24.9z"/>
	<path class="st1" d="M21.4,30.3h0.6v0.4h-1.6l1.3-5.7h-0.6v-0.5h1.5l-0.2,0.9h0c0.1-0.1,0.2-0.2,0.3-0.4s0.2-0.2,0.4-0.3
		c0.1-0.1,0.3-0.2,0.4-0.2c0.2-0.1,0.3-0.1,0.5-0.1c0.3,0,0.6,0.1,0.8,0.3c0.2,0.2,0.3,0.6,0.3,1c0,0.4-0.1,0.8-0.2,1.2
		c-0.1,0.4-0.3,0.7-0.6,1.1s-0.5,0.5-0.9,0.7c-0.3,0.2-0.7,0.3-1.1,0.3c-0.1,0-0.2,0-0.3,0s-0.1,0-0.2,0c-0.1,0-0.1,0-0.2,0
		s-0.1,0-0.2-0.1L21.4,30.3z M23.7,25.1c-0.2,0-0.3,0-0.5,0.1c-0.1,0.1-0.3,0.2-0.4,0.3c-0.1,0.1-0.2,0.2-0.3,0.3
		c-0.1,0.1-0.1,0.2-0.2,0.3l-0.6,2.5c0,0,0.1,0.1,0.1,0.1c0,0,0.1,0,0.1,0.1c0.1,0,0.1,0,0.2,0c0.1,0,0.2,0,0.3,0
		c0.2,0,0.5-0.1,0.7-0.3s0.4-0.4,0.6-0.7c0.2-0.3,0.3-0.6,0.4-0.9c0.1-0.3,0.1-0.7,0.1-1c0-0.3-0.1-0.5-0.2-0.7
		C24.1,25.1,23.9,25.1,23.7,25.1z"/>
	<path class="st1" d="M29.3,28.3c-0.1,0.1-0.1,0.2-0.3,0.3c-0.1,0.1-0.2,0.2-0.4,0.3s-0.3,0.2-0.5,0.2c-0.2,0.1-0.4,0.1-0.6,0.1
		c-0.5,0-0.9-0.1-1.2-0.4S26,28.1,26,27.6c0-0.4,0.1-0.8,0.2-1.2s0.3-0.7,0.5-1c0.2-0.3,0.5-0.5,0.8-0.7c0.3-0.2,0.7-0.2,1.1-0.2
		c0.2,0,0.3,0,0.4,0.1c0.1,0,0.3,0.1,0.4,0.2c0.1,0.1,0.2,0.2,0.2,0.3s0.1,0.2,0.1,0.4c0,0.4-0.2,0.7-0.6,1
		c-0.4,0.2-1.1,0.4-2.1,0.5c0,0.1,0,0.2-0.1,0.3c0,0.1,0,0.2,0,0.3c0,0.4,0.1,0.6,0.3,0.9c0.2,0.2,0.5,0.3,0.8,0.3
		c0.1,0,0.2,0,0.3-0.1c0.1,0,0.2-0.1,0.3-0.1s0.2-0.1,0.3-0.2c0.1-0.1,0.1-0.1,0.2-0.2L29.3,28.3z M28.3,24.9
		c-0.3,0-0.5,0.1-0.7,0.4s-0.4,0.6-0.6,1.2c0.6,0,1.1-0.1,1.4-0.3c0.3-0.2,0.5-0.4,0.5-0.7c0-0.1,0-0.1,0-0.2s0-0.1-0.1-0.2
		c0,0-0.1-0.1-0.2-0.1C28.5,24.9,28.4,24.9,28.3,24.9z"/>
	<path class="st1" d="M33.6,26.5c0-0.2,0.1-0.4,0.1-0.5c0-0.2,0.1-0.3,0.1-0.5c0-0.1,0-0.2-0.1-0.3s-0.2-0.1-0.3-0.1
		c-0.2,0-0.3,0-0.5,0.1c-0.2,0.1-0.3,0.2-0.4,0.3c-0.1,0.1-0.2,0.2-0.3,0.3c-0.1,0.1-0.2,0.2-0.2,0.3l-0.7,3.1h-0.8l0.8-4h-0.6v-0.5
		h1.5L32,25.5h0c0.2-0.3,0.5-0.5,0.8-0.7c0.3-0.2,0.6-0.3,0.9-0.3c0.3,0,0.5,0.1,0.7,0.2s0.2,0.3,0.2,0.6c0,0.1,0,0.3,0,0.5
		s-0.1,0.4-0.1,0.6l-0.5,2.2h0.7v0.5h-0.7H33L33.6,26.5z"/>
	<path class="st1" d="M35.9,25.1v-0.5h1.5l-0.9,4h0.7v0.5h-1.6l0.9-4H35.9z M36.5,23.2c0-0.2,0.1-0.3,0.2-0.4s0.3-0.1,0.4-0.1
		c0.2,0,0.3,0,0.5,0.1c0.1,0.1,0.2,0.2,0.2,0.4c0,0.2-0.1,0.3-0.2,0.4c-0.1,0.1-0.3,0.1-0.5,0.1c-0.2,0-0.3,0-0.4-0.1
		C36.5,23.5,36.5,23.4,36.5,23.2z"/>
	<path class="st1" d="M41.6,26.5c0-0.2,0.1-0.4,0.1-0.5s0.1-0.3,0.1-0.5c0-0.1,0-0.2-0.1-0.3c-0.1-0.1-0.2-0.1-0.3-0.1
		c-0.2,0-0.3,0-0.5,0.1c-0.2,0.1-0.3,0.2-0.4,0.3c-0.1,0.1-0.2,0.2-0.3,0.3c-0.1,0.1-0.2,0.2-0.2,0.3l-0.7,3.1h-0.8l0.8-4h-0.6v-0.5
		h1.5L40,25.5h0c0.2-0.3,0.5-0.5,0.8-0.7c0.3-0.2,0.6-0.3,0.9-0.3c0.3,0,0.5,0.1,0.7,0.2s0.2,0.3,0.2,0.6c0,0.1,0,0.3,0,0.5
		c0,0.2-0.1,0.4-0.1,0.6l-0.5,2.2h0.7v0.5h-0.7H41L41.6,26.5z"/>
	<path class="st1" d="M46.5,29.5c0-0.2-0.1-0.3-0.2-0.4s-0.3-0.2-0.6-0.3c-0.3-0.1-0.6-0.1-0.9-0.2c-0.3,0-0.7-0.1-1.1-0.1l0.8-1.2
		c-0.1,0-0.2-0.1-0.2-0.1S44.1,27.1,44,27c-0.1-0.1-0.1-0.2-0.2-0.3c0-0.1-0.1-0.3-0.1-0.4c0-0.3,0.1-0.5,0.2-0.7
		c0.1-0.2,0.3-0.4,0.4-0.6c0.2-0.2,0.4-0.3,0.7-0.3c0.3-0.1,0.6-0.1,0.9-0.1h2.3V25h-0.9c0,0.1,0.1,0.2,0.1,0.3c0,0.1,0,0.3,0,0.4
		c0,0.3-0.1,0.6-0.2,0.8s-0.3,0.4-0.5,0.6c-0.2,0.2-0.4,0.3-0.7,0.4c-0.3,0.1-0.5,0.1-0.8,0.1c-0.1,0-0.2,0-0.4,0
		c-0.1,0-0.2,0-0.2-0.1l-0.4,0.5c0.3,0,0.6,0.1,1,0.1c0.3,0,0.7,0.1,1,0.2s0.5,0.2,0.7,0.4c0.2,0.2,0.3,0.4,0.3,0.6
		c0,0.2-0.1,0.5-0.2,0.7c-0.1,0.2-0.3,0.4-0.5,0.5c-0.2,0.1-0.5,0.2-0.8,0.3c-0.3,0.1-0.6,0.1-0.9,0.1c-0.3,0-0.5,0-0.8-0.1
		c-0.2-0.1-0.5-0.1-0.6-0.2c-0.2-0.1-0.3-0.2-0.4-0.3C43,30.1,43,30,43,29.8c0-0.2,0.1-0.3,0.2-0.5c0.1-0.1,0.3-0.2,0.4-0.3H44
		c-0.1,0.1-0.1,0.2-0.2,0.3c0,0.1-0.1,0.2-0.1,0.3c0,0.1,0,0.3,0.1,0.4c0.1,0.1,0.2,0.2,0.3,0.2s0.3,0.1,0.4,0.1c0.2,0,0.3,0,0.5,0
		c0.2,0,0.4,0,0.6-0.1c0.2,0,0.3-0.1,0.4-0.2c0.1-0.1,0.2-0.2,0.3-0.3C46.5,29.8,46.5,29.6,46.5,29.5z M46,24.9
		c-0.4,0-0.8,0.1-1,0.3c-0.3,0.2-0.4,0.6-0.4,1.1c0,0.2,0,0.3,0.1,0.4s0.1,0.2,0.2,0.3c0.1,0.1,0.2,0.1,0.3,0.2
		c0.1,0,0.2,0.1,0.3,0.1c0.2,0,0.4,0,0.5-0.1c0.2-0.1,0.3-0.2,0.4-0.3c0.1-0.1,0.2-0.3,0.3-0.4c0.1-0.2,0.1-0.4,0.1-0.6
		c0-0.2,0-0.4-0.1-0.5c0-0.1-0.1-0.3-0.2-0.4H46z"/>
	<path class="st1" d="M56.3,26.4c0-0.1,0.1-0.3,0.1-0.5c0-0.2,0.1-0.3,0.1-0.4c0-0.1,0-0.3-0.1-0.4c-0.1-0.1-0.2-0.1-0.4-0.1
		c-0.1,0-0.2,0-0.3,0.1s-0.2,0.1-0.4,0.2c-0.1,0.1-0.2,0.2-0.3,0.3c-0.1,0.1-0.2,0.2-0.2,0.3L54,29.1h-0.8l0.6-2.5
		c0-0.2,0.1-0.4,0.1-0.5s0-0.3,0-0.5c0-0.1,0-0.2-0.1-0.3c-0.1-0.1-0.1-0.1-0.3-0.1c-0.1,0-0.2,0-0.4,0.1c-0.1,0-0.2,0.1-0.3,0.2
		c-0.1,0.1-0.2,0.2-0.3,0.3c-0.1,0.1-0.2,0.2-0.3,0.3l-0.7,3.2h-0.8l0.9-4h-0.6v-0.5h1.5l-0.2,0.7h0c0.1-0.1,0.2-0.2,0.3-0.3
		c0.1-0.1,0.2-0.2,0.3-0.3c0.1-0.1,0.3-0.2,0.4-0.2c0.2-0.1,0.3-0.1,0.5-0.1c0.2,0,0.4,0.1,0.6,0.2c0.1,0.1,0.2,0.4,0.2,0.7
		c0.3-0.3,0.5-0.5,0.8-0.6c0.3-0.2,0.6-0.2,0.9-0.2c0.6,0,0.8,0.3,0.8,0.9c0,0.2,0,0.3,0,0.5s-0.1,0.3-0.1,0.5l-0.6,2.2h0.7v0.5
		h-1.6L56.3,26.4z"/>
	<path class="st1" d="M58.6,25.1v-0.5h1.5l-0.9,4H60v0.5h-1.6l0.9-4H58.6z M59.2,23.2c0-0.2,0.1-0.3,0.2-0.4s0.3-0.1,0.4-0.1
		c0.2,0,0.3,0,0.5,0.1c0.1,0.1,0.2,0.2,0.2,0.4c0,0.2-0.1,0.3-0.2,0.4c-0.1,0.1-0.3,0.1-0.5,0.1c-0.2,0-0.3,0-0.4-0.1
		C59.2,23.5,59.2,23.4,59.2,23.2z"/>
	<path class="st1" d="M64.4,26.5c0-0.2,0.1-0.4,0.1-0.5s0.1-0.3,0.1-0.5c0-0.1,0-0.2-0.1-0.3c-0.1-0.1-0.2-0.1-0.3-0.1
		c-0.2,0-0.3,0-0.5,0.1c-0.2,0.1-0.3,0.2-0.4,0.3c-0.1,0.1-0.2,0.2-0.3,0.3c-0.1,0.1-0.2,0.2-0.2,0.3L62,29.1h-0.8l0.8-4h-0.6v-0.5
		h1.5l-0.2,0.9h0c0.2-0.3,0.5-0.5,0.8-0.7c0.3-0.2,0.6-0.3,0.9-0.3c0.3,0,0.5,0.1,0.7,0.2s0.2,0.3,0.2,0.6c0,0.1,0,0.3,0,0.5
		c0,0.2-0.1,0.4-0.1,0.6l-0.5,2.2h0.7v0.5h-0.7h-0.8L64.4,26.5z"/>
	<path class="st1" d="M69.1,28.2c-0.1,0.1-0.1,0.2-0.2,0.3c-0.1,0.1-0.2,0.2-0.3,0.3c-0.1,0.1-0.3,0.2-0.4,0.2
		c-0.2,0.1-0.3,0.1-0.5,0.1c-0.2,0-0.3,0-0.5-0.1c-0.1-0.1-0.3-0.1-0.4-0.3c-0.1-0.1-0.2-0.3-0.2-0.4s-0.1-0.4-0.1-0.6
		c0-0.4,0.1-0.8,0.2-1.2c0.1-0.4,0.3-0.7,0.5-1.1c0.2-0.3,0.5-0.6,0.9-0.7c0.3-0.2,0.7-0.3,1.1-0.3c0.1,0,0.2,0,0.2,0
		c0.1,0,0.1,0,0.2,0c0,0,0.1,0,0.1,0c0,0,0.1,0,0.2,0.1l0.3-1.5h-0.6v-0.5h1.6l-1.2,6h0.7v0.4H69L69.1,28.2L69.1,28.2z M67.9,28.6
		c0.1,0,0.3,0,0.4-0.1c0.1-0.1,0.2-0.1,0.4-0.2c0.1-0.1,0.2-0.2,0.3-0.3s0.2-0.2,0.2-0.3l0.5-2.6c-0.1-0.1-0.2-0.1-0.3-0.1
		c-0.1,0-0.2,0-0.3,0c-0.3,0-0.6,0.1-0.8,0.2c-0.2,0.2-0.4,0.4-0.6,0.6s-0.3,0.5-0.4,0.9c-0.1,0.3-0.1,0.6-0.1,1
		c0,0.3,0.1,0.5,0.2,0.7C67.6,28.5,67.7,28.6,67.9,28.6z"/>
	<path class="st1" d="M72.8,28.7c0.1,0,0.2,0,0.3,0c0.1,0,0.2-0.1,0.3-0.1c0.1-0.1,0.2-0.1,0.2-0.2c0.1-0.1,0.1-0.2,0.1-0.3
		c0-0.1,0-0.3-0.1-0.4s-0.2-0.2-0.3-0.3c-0.1-0.1-0.3-0.2-0.4-0.3c-0.2-0.1-0.3-0.2-0.4-0.3s-0.2-0.2-0.3-0.4S72,26,72,25.8
		c0-0.2,0-0.4,0.1-0.6c0.1-0.2,0.2-0.3,0.4-0.4c0.2-0.1,0.4-0.2,0.6-0.2s0.5-0.1,0.7-0.1c0.1,0,0.2,0,0.4,0c0.1,0,0.2,0,0.3,0.1
		c0.1,0,0.2,0.1,0.3,0.1c0.1,0,0.1,0.1,0.2,0.1l-0.3,1h-0.5l0.1-0.7c0,0-0.1-0.1-0.2-0.1c-0.1,0-0.2,0-0.3,0c-0.1,0-0.2,0-0.3,0
		c-0.1,0-0.2,0-0.3,0.1c-0.1,0-0.2,0.1-0.2,0.2c-0.1,0.1-0.1,0.2-0.1,0.3c0,0.2,0,0.3,0.1,0.4s0.2,0.2,0.3,0.3s0.3,0.2,0.4,0.3
		c0.2,0.1,0.3,0.2,0.4,0.3c0.1,0.1,0.2,0.2,0.3,0.4c0.1,0.1,0.1,0.3,0.1,0.5c0,0.2-0.1,0.4-0.2,0.6c-0.1,0.2-0.3,0.3-0.5,0.4
		s-0.4,0.2-0.7,0.3c-0.2,0.1-0.5,0.1-0.8,0.1c-0.1,0-0.3,0-0.4,0c-0.1,0-0.3-0.1-0.4-0.1c-0.1,0-0.2-0.1-0.3-0.1
		c-0.1,0-0.1-0.1-0.2-0.1l0.3-1h0.6l-0.2,0.7c0.1,0.1,0.2,0.1,0.3,0.2C72.4,28.7,72.6,28.7,72.8,28.7z"/>
</g>
<path class="st1" d="M25.4,5.6c0-0.3,0.1-0.5,0.3-0.7s0.4-0.3,0.8-0.3s0.6,0.1,0.8,0.3s0.3,0.4,0.3,0.7c0,0.3-0.1,0.5-0.3,0.7
	s-0.5,0.3-0.8,0.3s-0.6-0.1-0.8-0.3S25.4,5.8,25.4,5.6z"/>
<path class="st1" d="M48.7,2.1c0-0.3,0.1-0.5,0.3-0.7c0.2-0.2,0.4-0.3,0.8-0.3s0.6,0.1,0.8,0.3s0.3,0.4,0.3,0.7
	c0,0.3-0.1,0.5-0.3,0.7s-0.5,0.3-0.8,0.3S49.2,3,49,2.8C48.8,2.6,48.7,2.4,48.7,2.1z"/>
</svg>
